<?xml version="1.0" encoding="UTF-8"?>
<svg width="400" height="400" version="1.1" xmlns="http://www.w3.org/2000/svg" xmlns:xlink="http://www.w3.org/1999/xlink">
	<circle cx="200" cy="200" r="176.3" fill="white"/>
	<use transform="rotate(-45.09 200 200)" xlink:href="#a"/>
	<use transform="rotate(-89.92 199.9 200)" xlink:href="#a"/>
	<use transform="rotate(225.1 199.9 200)" xlink:href="#a"/>
	<path id="a" d="m341.4 341.4c24.97-24.97-18.1-108.5-96.2-186.6-78.11-78.1-161.7-121.2-186.7-96.19-24.97 24.98 18.1 108.5 96.2 186.6s161.7 121.2 186.6 96.19zm-279.3-279.3c24.35-24.35 105.8 17.64 182 93.77 76.14 76.12 118.1 157.6 93.78 181.9-24.35 24.35-105.8-17.63-182-93.77-76.14-76.14-118.1-157.6-93.78-181.9z"/>
	<circle cx="200" cy="200" r="23.41"/>
	<circle cx="53.5" cy="69.3" r="14.24"/>
	<path d="m121.8 345.7c-4.178 5.042-11.65 5.727-16.69 1.541-5.038-4.19-5.74-11.67-1.562-16.71 4.178-5.042 11.65-5.728 16.69-1.545 5.042 4.19 5.74 11.67 1.566 16.71z"/>
	<path d="m295.5 150.4c-3.35 4.032-9.317 4.58-13.33 1.233-4.016-3.355-4.555-9.342-1.213-13.37 3.334-4.032 9.309-4.58 13.32-1.229 4.02 3.35 4.567 9.338 1.229 13.37z"/>
</svg>
